<svg width="49" height="49" viewBox="0 0 49 49" fill="none" xmlns="http://www.w3.org/2000/svg">
<path d="M23.6329 0.509352C24.0173 -0.159801 24.9827 -0.159801 25.3671 0.509352L28.1847 5.41385C28.4751 5.9195 29.1349 6.07034 29.6163 5.74116L34.3335 2.51517C34.9729 2.07794 35.8451 2.50221 35.8959 3.27509L36.262 8.85259C36.3006 9.4397 36.8352 9.86681 37.4163 9.77477L43.0669 8.87986C43.8381 8.75772 44.4455 9.52711 44.1477 10.2489L42.0253 15.3933C41.7984 15.9433 42.0989 16.5685 42.67 16.7348L48.114 18.3206C48.8685 18.5404 49.0863 19.5045 48.4996 20.0273L44.3179 23.7534C43.8716 24.1511 43.8716 24.8489 44.3179 25.2466L48.4996 28.9727C49.0863 29.4955 48.8685 30.4596 48.114 30.6794L42.67 32.2652C42.0989 32.4315 41.7984 33.0567 42.0253 33.6067L44.1477 38.7511C44.4455 39.4729 43.8381 40.2423 43.0669 40.1201L37.4163 39.2252C36.8352 39.1332 36.3006 39.5603 36.262 40.1474L35.8959 45.7249C35.8451 46.4978 34.9729 46.9221 34.3335 46.4848L29.6163 43.2588C29.1349 42.9297 28.4751 43.0805 28.1847 43.5861L25.3671 48.4907C24.9827 49.1598 24.0173 49.1598 23.6329 48.4907L20.8153 43.5861C20.5249 43.0805 19.8651 42.9297 19.3837 43.2588L14.6665 46.4848C14.0271 46.9221 13.1549 46.4978 13.1041 45.7249L12.738 40.1474C12.6994 39.5603 12.1648 39.1332 11.5837 39.2252L5.93311 40.1201C5.16188 40.2423 4.55447 39.4729 4.85227 38.7511L6.9747 33.6067C7.20159 33.0567 6.9011 32.4315 6.32995 32.2652L0.885985 30.6794C0.131498 30.4596 -0.0863322 29.4955 0.500386 28.9727L4.6821 25.2466C5.12841 24.8489 5.12841 24.1511 4.6821 23.7534L0.500386 20.0273C-0.0863315 19.5045 0.131498 18.5404 0.885984 18.3206L6.32995 16.7348C6.9011 16.5685 7.20159 15.9433 6.9747 15.3933L4.85227 10.2489C4.55447 9.52711 5.16188 8.75772 5.93311 8.87986L11.5837 9.77477C12.1648 9.86681 12.6994 9.4397 12.738 8.85259L13.1041 3.27509C13.1549 2.50221 14.0271 2.07794 14.6665 2.51517L19.3838 5.74116C19.8651 6.07034 20.5249 5.9195 20.8153 5.41385L23.6329 0.509352Z" fill="#ECD979"/>
</svg>
