<svg aria-hidden="true" style="position: absolute; width: 0; height: 0; overflow: hidden;" version="1.1" xmlns="http://www.w3.org/2000/svg" xmlns:xlink="http://www.w3.org/1999/xlink">
<defs>
<symbol id="icon-button-arrow" viewBox="0 0 32 32">
<path fill="#ecd979" style="fill: var(--color1, #ecd979)" d="M27.765 17.957c-0.174-1.303-0.286-2.466-0.337-3.49-0.022-1.040 0.017-1.94 0.119-2.7l-25.293 14.603-1.197-2.073 25.293-14.603c-0.728-0.325-1.537-0.758-2.426-1.297-0.861-0.556-1.803-1.218-2.825-1.988l1.519-0.877c3.209 1.349 6.143 2.024 8.804 2.023l0.513 0.888c-1.35 2.271-2.233 5.149-2.65 8.636l-1.519 0.877z"></path>
</symbol>
<symbol id="icon-close-menu" viewBox="0 0 32 32">
<path stroke-linejoin="round" stroke-linecap="round" stroke-miterlimit="4" stroke-width="1.7778" d="M24 8l-16 16"></path>
<path stroke-linejoin="round" stroke-linecap="round" stroke-miterlimit="4" stroke-width="1.7778" d="M8 8l16 16"></path>
</symbol>
<symbol id="icon-facebook" viewBox="0 0 32 32">
<path fill="#fcf9f9" style="fill: var(--color2, #fcf9f9)" d="M20.929 0.096c0.336 0 0.672 0 1.344 0v5.040c-0.336 0-1.008 0-1.68 0s-1.344 0-1.68 0.336c-0.336 0.336-0.336 0.672-0.336 1.456 0 0.672 0 1.12 0 1.792h3.696v4.256h-3.696v18.48h-5.712v-18.592h-3.024v-4.256h3.024v-1.456c0-2.464 0.336-4.256 1.008-5.040 1.008-1.456 3.024-2.128 6.048-2.128 0.336 0.112 0.672 0.112 1.008 0.112z"></path>
</symbol>
<symbol id="icon-instagram" viewBox="0 0 32 32">
<path fill="#fcf9f9" style="fill: var(--color2, #fcf9f9)" d="M30.837 9.882c-0.018-1.253-0.251-2.497-0.695-3.669-0.778-2.002-2.362-3.585-4.367-4.36-1.159-0.435-2.385-0.669-3.625-0.695-1.596-0.071-2.101-0.091-6.151-0.091s-4.569 0-6.153 0.091c-1.239 0.026-2.465 0.26-3.624 0.695-2.005 0.775-3.591 2.358-4.367 4.36-0.436 1.157-0.672 2.381-0.695 3.618-0.071 1.595-0.093 2.1-0.093 6.143s0 4.56 0.093 6.143c0.025 1.239 0.259 2.46 0.695 3.621 0.778 2 2.362 3.583 4.369 4.358 1.154 0.45 2.38 0.705 3.624 0.745 1.597 0.071 2.103 0.093 6.153 0.093s4.569 0 6.153-0.093c1.239-0.025 2.465-0.258 3.626-0.694 2.005-0.777 3.589-2.359 4.367-4.36 0.436-1.159 0.67-2.381 0.695-3.621 0.071-1.593 0.093-2.098 0.093-6.143-0.003-4.043-0.003-4.557-0.096-6.141zM15.988 23.62c-4.236 0-7.667-3.426-7.667-7.655s3.431-7.655 7.667-7.655c4.233 0 7.667 3.426 7.667 7.655s-3.435 7.655-7.667 7.655zM23.961 9.812c-0.99 0-1.788-0.798-1.788-1.785s0.798-1.785 1.788-1.785c0.987 0 1.786 0.798 1.786 1.785s-0.799 1.785-1.786 1.785z"></path>
</symbol>
<symbol id="icon-nav-burger" viewBox="0 0 32 32">
<path fill="none" stroke="#ecd979" style="stroke: var(--color1, #ecd979)" stroke-linejoin="miter" stroke-linecap="round" stroke-miterlimit="4" stroke-width="1.7778" d="M5.759 8.97h25.353"></path>
<path fill="none" stroke="#ecd979" style="stroke: var(--color1, #ecd979)" stroke-linejoin="miter" stroke-linecap="round" stroke-miterlimit="4" stroke-width="1.7778" d="M5.759 21.899h25.353"></path>
<path fill="none" stroke="#ecd979" style="stroke: var(--color1, #ecd979)" stroke-linejoin="miter" stroke-linecap="round" stroke-miterlimit="4" stroke-width="1.7778" d="M13.411 15.434h17.701"></path>
</symbol>
<symbol id="icon-youtube" viewBox="0 0 32 32">
<path fill="#fcf9f9" style="fill: var(--color2, #fcf9f9)" d="M24.874 5.231c-1.465-0.086-4.48-0.172-9.046-0.172h-0.603c-4.394 0-7.323 0.086-8.788 0.258-1.982 0.172-3.36 0.689-4.135 1.378-0.689 0.603-1.206 1.723-1.378 3.188-0.086 0.948-0.172 2.929-0.172 5.945v0.431c0 2.843 0.086 4.825 0.258 5.772 0.258 1.378 0.689 2.412 1.551 3.015 0.862 0.689 2.326 1.12 4.394 1.292 1.465 0.086 4.48 0.172 9.046 0.172h0.603c4.394 0 7.323-0.086 8.788-0.258 1.982-0.172 3.36-0.689 4.135-1.378 0.689-0.603 1.206-1.723 1.378-3.188 0.086-0.948 0.172-2.929 0.172-5.945v-0.431c0-2.843-0.086-4.825-0.258-5.772-0.258-1.378-0.689-2.412-1.551-3.015-0.862-0.689-2.326-1.12-4.394-1.292zM21.514 15.828l-9.477 5.686v-11.372l9.477 5.686z"></path>
</symbol>
</defs>
</svg>
