<svg width="8" height="20" viewBox="0 0 8 20" fill="none" xmlns="http://www.w3.org/2000/svg">
<path d="M7.08039 0.0601431C7.29039 0.0601431 7.50039 0.0601431 7.92039 0.0601431V3.21014C7.71039 3.21014 7.29039 3.21014 6.87039 3.21014C6.45039 3.21014 6.03039 3.21014 5.82039 3.42014C5.61039 3.63014 5.61038 3.84014 5.61038 4.33014C5.61038 4.75014 5.61038 5.03014 5.61038 5.45014H7.92039V8.11014H5.61038V19.6601H2.0404V8.04014H0.150391V5.38014H2.0404V4.47014C2.0404 2.93014 2.25039 1.81014 2.67039 1.32014C3.30039 0.410143 4.56039 -0.00985718 6.45039 -0.00985718C6.66039 0.0601428 6.87039 0.0601431 7.08039 0.0601431Z" fill="#FCF9F9"/>
</svg>
