<svg width="24" height="24" viewBox="0 0 24 24" fill="none" xmlns="http://www.w3.org/2000/svg">
<path d="M23.1277 7.41145C23.114 6.47139 22.9398 5.53879 22.6065 4.65957C22.0231 3.15821 20.8352 1.97103 19.3313 1.38985C18.4618 1.06325 17.5426 0.888157 16.6122 0.868288C15.4155 0.81489 15.0361 0.799988 11.9986 0.799988C8.96098 0.799988 8.57164 0.799988 7.38372 0.868288C6.45454 0.888157 5.5353 1.06325 4.66582 1.38985C3.16196 1.97103 1.97279 3.15821 1.39065 4.65957C1.06351 5.52761 0.886877 6.44532 0.869463 7.37296C0.815975 8.56883 0.799805 8.94759 0.799805 11.9801C0.799805 15.0127 0.799805 15.4001 0.869463 16.5873C0.888121 17.5162 1.06351 18.4326 1.39065 19.3032C1.97404 20.8033 3.16195 21.9905 4.66706 22.5716C5.53281 22.9094 6.45205 23.1006 7.38497 23.1304C8.58284 23.1838 8.96222 23.2 11.9998 23.2C15.0374 23.2 15.4267 23.2 16.6146 23.1304C17.5438 23.1118 18.4631 22.9367 19.3338 22.6101C20.8377 22.0277 22.0256 20.8405 22.609 19.3404C22.9361 18.4711 23.1115 17.5547 23.1301 16.6245C23.1836 15.4299 23.1998 15.0511 23.1998 12.0174C23.1973 8.98484 23.1973 8.59988 23.1277 7.41145ZM11.9911 17.7149C8.8142 17.7149 6.24059 15.1455 6.24059 11.9739C6.24059 8.8023 8.8142 6.23296 11.9911 6.23296C15.1655 6.23296 17.7416 8.8023 17.7416 11.9739C17.7416 15.1455 15.1655 17.7149 11.9911 17.7149ZM17.9705 7.3593C17.2279 7.3593 16.6296 6.76074 16.6296 6.02061C16.6296 5.28049 17.2279 4.68193 17.9705 4.68193C18.7106 4.68193 19.3102 5.28049 19.3102 6.02061C19.3102 6.76074 18.7106 7.3593 17.9705 7.3593Z" fill="#FCF9F9"/>
</svg>
