<svg width="26" height="18" viewBox="0 0 26 18" fill="none" xmlns="http://www.w3.org/2000/svg">
<path fill-rule="evenodd" clip-rule="evenodd" d="M20.2103 0.249863C19.0203 0.179863 16.5704 0.109863 12.8604 0.109863H12.3703C8.80034 0.109863 6.42038 0.179863 5.23038 0.319863C3.62038 0.459863 2.50034 0.879863 1.87034 1.43986C1.31034 1.92986 0.89036 2.83986 0.75036 4.02986C0.68036 4.79986 0.610352 6.40986 0.610352 8.85986V9.20986C0.610352 11.5199 0.680343 13.1299 0.820343 13.8999C1.03034 15.0199 1.38038 15.8599 2.08038 16.3499C2.78038 16.9099 3.97036 17.2599 5.65036 17.3999C6.84036 17.4699 9.29036 17.5399 13.0004 17.5399H13.4904C17.0604 17.5399 19.4404 17.4699 20.6304 17.3299C22.2404 17.1899 23.3604 16.7699 23.9904 16.2099C24.5504 15.7199 24.9703 14.8099 25.1103 13.6199C25.1803 12.8499 25.2504 11.2399 25.2504 8.78986V8.43986C25.2504 6.12986 25.1804 4.51986 25.0404 3.74986C24.8304 2.62986 24.4804 1.78986 23.7804 1.29986C23.0804 0.739863 21.8903 0.389863 20.2103 0.249863ZM17.4804 8.85986L9.78038 13.4799V4.23986L17.4804 8.85986Z" fill="#FCF9F9"/>
</svg>
